<svg width="280" height="280" viewBox="0 0 280 280" fill="none" xmlns="http://www.w3.org/2000/svg">
<rect width="280" height="280" fill="white"/>
<path fill-rule="evenodd" clip-rule="evenodd" d="M145.545 41.0807C166.156 38.8905 203.752 36.4627 219.79 45.0257C228.361 49.6014 224.955 61.9194 225.133 76.3453C225.018 134.468 227.485 180.766 221.491 191.6C215.857 201.785 205.522 200.264 185.483 199.711C164.804 199.139 133.965 199.377 98.6531 200C86.8931 200.208 69.1367 203.458 61.1485 195.26C56.3567 190.341 55.9415 179.834 54.8991 172.834C52.6883 157.99 54.358 137.747 53.8936 119.768C53.5514 106.524 55.764 97.8115 54.9774 84.8038C53.9659 68.0781 50.605 48.1851 58.0796 43.985C65.1546 40.0072 78.8887 41.5682 92.6362 40.557C115.309 38.8881 134.498 40.8749 145.545 41.0807Z" fill="#E75913"/>
<path fill-rule="evenodd" clip-rule="evenodd" d="M145.3 43.1496C165.07 41.0266 201.134 38.672 216.517 46.9773C224.738 51.415 221.471 63.3638 221.645 77.3553C221.532 133.73 223.899 178.633 218.15 189.143C212.746 199.021 202.833 197.547 183.606 197.01C163.772 196.458 134.191 196.686 100.319 197.29C89.0387 197.492 72.0067 200.645 64.3433 192.693C59.7463 187.92 59.349 177.732 58.3479 170.942C56.2276 156.545 57.8285 136.908 57.3838 119.472C57.0565 106.625 59.1786 98.1753 58.423 85.5596C57.4529 69.3376 54.2306 50.041 61.3985 45.9677C68.1859 42.1086 81.3586 43.6234 94.5462 42.6429C116.297 41.0233 134.702 42.9505 145.3 43.1496Z" fill="white"/>
<path fill-rule="evenodd" clip-rule="evenodd" d="M144.698 45.7801C163.479 43.7365 197.737 41.4739 212.352 49.4613C220.16 53.7285 217.057 65.2214 217.222 78.6814C217.115 132.905 219.363 176.097 213.901 186.204C208.767 195.707 199.351 194.289 181.088 193.772C162.246 193.24 134.145 193.461 101.967 194.042C91.2523 194.235 75.0718 197.267 67.7926 189.618C63.4245 185.031 63.0482 175.23 62.0987 168.699C60.0837 154.85 61.6043 135.964 61.1812 119.192C60.8703 106.835 62.8863 98.7063 62.1702 86.5706C61.2475 70.9697 58.1856 52.4094 64.9971 48.4905C71.4438 44.7789 83.9585 46.2348 96.4845 45.2908C117.145 43.7346 134.629 45.588 144.698 45.7801Z" fill="#E75913"/>
<path fill-rule="evenodd" clip-rule="evenodd" d="M135.941 184.005C129.8 174.251 132.075 170.921 130.333 156.937C129.627 151.264 127.405 128.297 127.639 121.833C119.335 120.922 115.513 121.613 114.15 123.361C112.042 126.062 119.26 141.325 120.021 145.593C120.703 149.421 116.465 151.734 115.025 144.93C114.596 142.905 108.584 127.304 108.147 126.063C107.993 125.633 107.985 125.354 107.53 125.254C106.386 125.291 102.863 127.301 100.104 128.523C100.316 135.008 105.687 161.752 108.342 167.379C109.386 169.594 110.323 176.899 111.303 180.097C112.148 182.858 112.726 182.541 118.351 183.753C117.326 179.552 113.842 164.179 117.481 164.393C123.48 164.746 119.886 169.276 127.089 185.834C129.189 190.656 132.059 190.626 138.148 188.604L135.941 184.005Z" fill="white"/>
<path fill-rule="evenodd" clip-rule="evenodd" d="M161.145 189.068C163.442 189.047 166.25 188.713 169.193 188.114C175.439 186.845 182.302 184.378 186.214 181.151C191.111 175.641 186.972 170.634 186.972 170.626C179.065 163.999 170.045 184.485 173.012 158.107C173.439 154.295 178.303 134.266 176.29 133.404C160.256 126.531 165.215 140.451 165.203 153.228C165.188 166.179 159.502 176.859 161.145 189.068Z" fill="white"/>
<path fill-rule="evenodd" clip-rule="evenodd" d="M87.7513 179.986C93.0412 184.659 98.7223 185.716 104.41 182.675C104.47 182.527 105.184 180.99 105.235 178.835C105.342 174.263 105.821 166.744 101.496 167.859L95.1924 169.482C94.0526 171.73 99.9602 178.397 97.2902 179.19C94.7557 179.755 87.3628 160.614 86.727 157.979C85.9827 154.88 85.2615 151.253 86.3745 148.083C87.2197 145.675 90.541 146.723 91.2154 154.789C92.2278 166.924 94.9468 167.647 101.357 159.459C101.384 159.216 97.7841 136.522 97.8005 133.616C97.7883 133.614 75.793 136.1 73.5257 136.309C65.7675 137.016 82.3832 175.24 87.7513 179.986Z" fill="white"/>
<path fill-rule="evenodd" clip-rule="evenodd" d="M82.0188 109.765C89.721 107.312 85.1695 118.681 81.8439 116.323C80.8868 115.643 78.7545 110.804 82.0188 109.765ZM86.0258 88.4005C86.0914 102.495 73.0038 96.5256 84.6982 81.7295C87.1391 78.6392 86.0243 88.1567 86.0258 88.4005ZM97.5007 92.0361C97.4733 86.1958 93.573 62.5508 91.7354 58.7729C66.7361 65.9065 65.9167 127.363 74.2882 130.572C79.0362 132.392 108.931 111.274 96.7494 104.321C87.8791 99.2585 81.5795 103.213 92.7836 97.9498C96.1585 96.3645 97.4913 97.6197 97.5007 92.0361Z" fill="white"/>
<path fill-rule="evenodd" clip-rule="evenodd" d="M135.493 127.223C138.17 131.275 160.637 130.963 151.762 125.718C149.576 124.667 147.182 124.521 144.56 124.175C138.997 123.442 133.037 122.939 135.493 127.223Z" fill="white"/>
<path fill-rule="evenodd" clip-rule="evenodd" d="M128.976 54.2654C131.989 64.2748 128.486 77.2435 128.718 89.4093C128.878 97.7456 125.5 120.358 126.597 93.0125C126.806 87.8019 125.893 82.748 123.368 76.8086C122.04 73.1152 117.71 72.5794 114.468 74.4325C112.422 75.6014 100.748 78.118 99.9378 81.3092C98.8141 85.7418 100.913 100.501 102.738 105.455C104.173 105.144 108.084 101.726 111.307 97.4633C112.905 95.3506 106.597 90.2418 108.062 81.0783C108.342 79.3252 109.483 78.5498 110.575 78.2043C117.101 78.0845 124.587 93.214 115.543 106.764C114.717 107.997 112.266 110.976 101.976 112.824C99.3217 113.3 97.3132 122.858 98.0214 125.282C108.627 124.428 116.9 115.495 134.44 115.212C134.452 115.178 135.276 107.886 135.305 106.823C136.697 97.7492 145.208 58.8161 141.099 50.5583C136.91 50.1136 132.742 52.4941 128.976 54.2654Z" fill="white"/>
<path fill-rule="evenodd" clip-rule="evenodd" d="M149.047 166.691C144.202 168.961 146.049 161.12 142.172 149.012C141.166 145.866 140.447 145.314 141.23 143.583C142.676 142.335 143.877 143.274 144.813 144.877C146.799 148.278 147.997 155.913 150.81 161.161C152.171 163.7 151.593 165.497 149.047 166.691ZM130.997 143.577C134.45 159.808 132.265 172.523 143.385 177.382C147.356 179.12 164.172 193.039 161.069 158.608C158.38 128.736 162.242 132.361 142.714 131.009C137.648 130.659 127.428 126.808 130.997 143.577Z" fill="white"/>
<path fill-rule="evenodd" clip-rule="evenodd" d="M152.097 66.4722C155.88 63.0797 156.605 68.7177 155.791 72.7187C151.023 96.1886 153.066 83.7161 154.574 98.5991C155.184 104.617 152.838 106.599 148.42 106.117C148.39 106.068 147.101 88.2194 141.318 93.8796C140.448 94.7281 139.155 112.471 138.887 115.284C143.813 115.61 142.319 118.033 162.826 118.257C162.889 95.5355 156.198 95.7664 159.428 83.1404C160.597 78.576 166.259 72.0569 166.558 69.8118C167.263 61.9217 158.415 53.9094 147.516 55.485C146.361 71.4554 145.991 66.1035 143.592 82.9356C155.031 83.9106 147.815 76.2318 152.097 66.4722Z" fill="white"/>
<path fill-rule="evenodd" clip-rule="evenodd" d="M191.517 141.688C190.431 142.096 190.076 140.131 190.092 139.517C189.813 137.755 189.809 135.301 189.823 133.526C189.847 130.395 191.532 130.036 194.039 132.764C195.148 134.912 194.921 141.411 191.517 141.688ZM181.899 130.105C181.792 133.283 180.578 134.958 178.587 146.684L176.821 167.158C178.761 167.783 182.456 167.629 182.812 163.554C182.981 151.71 196.201 143.712 196.147 151.956L196.019 172.053L198.997 173.834C205.509 175.408 205.611 166.386 205.815 165.376C207.746 155.89 208.218 128.949 198.458 123.083C195.353 121.715 191.883 120.547 185.641 121.243C180.343 121.832 178.709 122.462 175.023 125.333C173.26 126.705 173.128 130.904 175.608 131.511C177.798 132.049 180.772 130.277 181.899 130.105Z" fill="white"/>
<path fill-rule="evenodd" clip-rule="evenodd" d="M174.473 88.8631L174.47 88.8418L174.464 88.8047C174.279 87.6339 173.982 86.1341 173.954 84.605C173.957 84.5807 173.96 84.5582 173.966 84.5369C173.972 84.1199 173.972 82.8042 174.277 82.5079C174.786 82.0106 175.989 82.514 176.484 82.8361C176.525 82.8665 176.569 82.8938 176.616 82.9257L176.628 82.9318C176.687 82.9741 176.75 83.0191 176.816 83.068C178.631 84.4077 178.873 84.6327 178.667 86.597C178.453 88.326 177.984 89.8864 177.19 90.9408C176.914 91.3836 176.068 92.9069 175.419 91.9358C175.384 91.893 175.353 91.8404 175.328 91.7766C175.058 90.866 174.616 89.7934 174.473 88.8631ZM164.839 98.2917C164.83 103.559 166.58 117.481 169.229 119.091C174.237 122.132 190.169 116.966 195.989 116.498C206.22 115.674 203.492 113.917 204.177 103.117C205.161 87.6379 205.03 74.7175 188.476 77.9656C191.218 83.9962 193.692 92.7598 192.435 98.2272C189.792 112.188 177.148 112.269 176.175 99.4177C184.807 99.0466 185.467 98.3047 185.456 81.9079C185.444 67.1583 175.973 63.0255 165.841 78.3677C163.411 82.0449 164.845 93.4145 164.839 98.2917Z" fill="white"/>
<path d="M54.4913 240.724C54.2745 240.724 54.1335 240.615 54.0685 240.398L52.9951 236.918C52.9517 236.831 52.8975 236.788 52.8324 236.788H44.2452C44.1802 236.788 44.126 236.831 44.0826 236.918L43.0092 240.398C42.9441 240.615 42.8032 240.724 42.5863 240.724H39.3336C39.2035 240.724 39.1059 240.691 39.0409 240.626C38.9758 240.539 38.965 240.42 39.0083 240.268L46.0668 218.28C46.1318 218.063 46.2728 217.955 46.4896 217.955H50.5555C50.7724 217.955 50.9133 218.063 50.9784 218.28L58.0693 240.268C58.091 240.312 58.1018 240.366 58.1018 240.431C58.1018 240.626 57.9826 240.724 57.744 240.724H54.4913ZM45.0909 233.633C45.0693 233.763 45.1126 233.828 45.2211 233.828H51.8241C51.9542 233.828 51.9976 233.763 51.9542 233.633L48.6039 222.736C48.5822 222.649 48.5497 222.606 48.5063 222.606C48.4629 222.606 48.4304 222.649 48.4087 222.736L45.0909 233.633ZM74.2496 240.724C74.0327 240.724 73.881 240.626 73.7942 240.431L69.5006 231.063C69.4572 230.976 69.3922 230.933 69.3055 230.933H65.4022C65.2938 230.933 65.2395 230.987 65.2395 231.096V240.333C65.2395 240.442 65.1962 240.539 65.1094 240.626C65.0444 240.691 64.9576 240.724 64.8492 240.724H61.8567C61.7483 240.724 61.6507 240.691 61.564 240.626C61.4989 240.539 61.4664 240.442 61.4664 240.333V218.345C61.4664 218.236 61.4989 218.15 61.564 218.085C61.6507 217.998 61.7483 217.955 61.8567 217.955H70.8017C72.1245 217.955 73.2955 218.236 74.3147 218.8C75.3338 219.342 76.1253 220.123 76.6891 221.142C77.2529 222.14 77.5349 223.289 77.5349 224.59C77.5349 226.086 77.1445 227.366 76.3639 228.428C75.6049 229.469 74.5423 230.196 73.1762 230.608C73.1328 230.608 73.1003 230.629 73.0786 230.673C73.0569 230.716 73.0569 230.759 73.0786 230.803L77.665 240.268C77.7083 240.355 77.73 240.42 77.73 240.463C77.73 240.637 77.6107 240.724 77.3722 240.724H74.2496ZM65.4022 221.207C65.2938 221.207 65.2395 221.261 65.2395 221.37V227.843C65.2395 227.951 65.2938 228.005 65.4022 228.005H70.2813C71.3221 228.005 72.157 227.702 72.7859 227.095C73.4364 226.466 73.7617 225.642 73.7617 224.623C73.7617 223.603 73.4364 222.779 72.7859 222.151C72.157 221.522 71.3221 221.207 70.2813 221.207H65.4022ZM96.3455 217.955C96.4539 217.955 96.5407 217.998 96.6057 218.085C96.6925 218.15 96.7358 218.236 96.7358 218.345V220.849C96.7358 220.958 96.6925 221.055 96.6057 221.142C96.5407 221.207 96.4539 221.24 96.3455 221.24H90.3605C90.2521 221.24 90.1979 221.294 90.1979 221.402V240.333C90.1979 240.442 90.1545 240.539 90.0678 240.626C90.0027 240.691 89.916 240.724 89.8075 240.724H86.815C86.7066 240.724 86.609 240.691 86.5223 240.626C86.4572 240.539 86.4247 240.442 86.4247 240.333V221.402C86.4247 221.294 86.3705 221.24 86.2621 221.24H80.5047C80.3963 221.24 80.2987 221.207 80.212 221.142C80.1469 221.055 80.1144 220.958 80.1144 220.849V218.345C80.1144 218.236 80.1469 218.15 80.212 218.085C80.2987 217.998 80.3963 217.955 80.5047 217.955H96.3455ZM114.343 240.984C112.716 240.984 111.285 240.669 110.049 240.041C108.813 239.39 107.859 238.479 107.187 237.308C106.515 236.137 106.178 234.793 106.178 233.275V225.403C106.178 223.864 106.515 222.519 107.187 221.37C107.859 220.199 108.813 219.299 110.049 218.67C111.285 218.02 112.716 217.694 114.343 217.694C115.947 217.694 117.357 218.009 118.571 218.638C119.807 219.266 120.761 220.123 121.434 221.207C122.106 222.292 122.442 223.517 122.442 224.883V225.143C122.442 225.251 122.399 225.349 122.312 225.436C122.247 225.501 122.16 225.533 122.052 225.533H119.092C118.983 225.533 118.886 225.501 118.799 225.436C118.734 225.349 118.701 225.251 118.701 225.143V224.98C118.701 223.809 118.3 222.844 117.498 222.086C116.717 221.327 115.666 220.947 114.343 220.947C113.02 220.947 111.957 221.348 111.155 222.151C110.353 222.931 109.952 223.972 109.952 225.273V233.405C109.952 234.706 110.374 235.758 111.22 236.56C112.066 237.341 113.161 237.731 114.505 237.731C115.806 237.731 116.826 237.395 117.563 236.723C118.322 236.029 118.701 235.086 118.701 233.893V231.876C118.701 231.768 118.647 231.714 118.539 231.714H114.538C114.429 231.714 114.332 231.681 114.245 231.616C114.18 231.529 114.148 231.432 114.148 231.323V228.916C114.148 228.808 114.18 228.721 114.245 228.656C114.332 228.569 114.429 228.526 114.538 228.526H122.052C122.16 228.526 122.247 228.569 122.312 228.656C122.399 228.721 122.442 228.808 122.442 228.916V233.08C122.442 235.573 121.705 237.514 120.23 238.902C118.777 240.29 116.815 240.984 114.343 240.984ZM140.479 240.724C140.262 240.724 140.121 240.615 140.056 240.398L138.983 236.918C138.939 236.831 138.885 236.788 138.82 236.788H130.233C130.168 236.788 130.114 236.831 130.07 236.918L128.997 240.398C128.932 240.615 128.791 240.724 128.574 240.724H125.321C125.191 240.724 125.094 240.691 125.028 240.626C124.963 240.539 124.953 240.42 124.996 240.268L132.054 218.28C132.119 218.063 132.26 217.955 132.477 217.955H136.543C136.76 217.955 136.901 218.063 136.966 218.28L144.057 240.268C144.079 240.312 144.089 240.366 144.089 240.431C144.089 240.626 143.97 240.724 143.732 240.724H140.479ZM131.079 233.633C131.057 233.763 131.1 233.828 131.209 233.828H137.812C137.942 233.828 137.985 233.763 137.942 233.633L134.591 222.736C134.57 222.649 134.537 222.606 134.494 222.606C134.451 222.606 134.418 222.649 134.396 222.736L131.079 233.633ZM147.844 240.724C147.736 240.724 147.638 240.691 147.552 240.626C147.487 240.539 147.454 240.442 147.454 240.333V218.345C147.454 218.236 147.487 218.15 147.552 218.085C147.638 217.998 147.736 217.955 147.844 217.955H150.837C150.945 217.955 151.032 217.998 151.097 218.085C151.184 218.15 151.227 218.236 151.227 218.345V237.308C151.227 237.417 151.281 237.471 151.39 237.471H162.286C162.395 237.471 162.482 237.514 162.547 237.601C162.633 237.666 162.677 237.753 162.677 237.861V240.333C162.677 240.442 162.633 240.539 162.547 240.626C162.482 240.691 162.395 240.724 162.286 240.724H147.844ZM166.427 240.724C166.318 240.724 166.221 240.691 166.134 240.626C166.069 240.539 166.036 240.442 166.036 240.333V218.345C166.036 218.236 166.069 218.15 166.134 218.085C166.221 217.998 166.318 217.955 166.427 217.955H169.419C169.528 217.955 169.614 217.998 169.679 218.085C169.766 218.15 169.81 218.236 169.81 218.345V237.308C169.81 237.417 169.864 237.471 169.972 237.471H180.869C180.977 237.471 181.064 237.514 181.129 237.601C181.216 237.666 181.259 237.753 181.259 237.861V240.333C181.259 240.442 181.216 240.539 181.129 240.626C181.064 240.691 180.977 240.724 180.869 240.724H166.427ZM200.037 220.817C200.037 220.925 199.993 221.023 199.907 221.11C199.842 221.175 199.755 221.207 199.647 221.207H188.555C188.446 221.207 188.392 221.261 188.392 221.37V227.453C188.392 227.561 188.446 227.615 188.555 227.615H196.003C196.112 227.615 196.199 227.659 196.264 227.745C196.35 227.81 196.394 227.897 196.394 228.005V230.478C196.394 230.586 196.35 230.684 196.264 230.77C196.199 230.835 196.112 230.868 196.003 230.868H188.555C188.446 230.868 188.392 230.922 188.392 231.031V237.308C188.392 237.417 188.446 237.471 188.555 237.471H199.647C199.755 237.471 199.842 237.514 199.907 237.601C199.993 237.666 200.037 237.753 200.037 237.861V240.333C200.037 240.442 199.993 240.539 199.907 240.626C199.842 240.691 199.755 240.724 199.647 240.724H185.009C184.901 240.724 184.803 240.691 184.716 240.626C184.651 240.539 184.619 240.442 184.619 240.333V218.345C184.619 218.236 184.651 218.15 184.716 218.085C184.803 217.998 184.901 217.955 185.009 217.955H199.647C199.755 217.955 199.842 217.998 199.907 218.085C199.993 218.15 200.037 218.236 200.037 218.345V220.817ZM216.652 240.724C216.435 240.724 216.283 240.626 216.196 240.431L211.903 231.063C211.859 230.976 211.794 230.933 211.708 230.933H207.804C207.696 230.933 207.642 230.987 207.642 231.096V240.333C207.642 240.442 207.598 240.539 207.512 240.626C207.446 240.691 207.36 240.724 207.251 240.724H204.259C204.15 240.724 204.053 240.691 203.966 240.626C203.901 240.539 203.868 240.442 203.868 240.333V218.345C203.868 218.236 203.901 218.15 203.966 218.085C204.053 217.998 204.15 217.955 204.259 217.955H213.204C214.527 217.955 215.698 218.236 216.717 218.8C217.736 219.342 218.527 220.123 219.091 221.142C219.655 222.14 219.937 223.289 219.937 224.59C219.937 226.086 219.547 227.366 218.766 228.428C218.007 229.469 216.944 230.196 215.578 230.608C215.535 230.608 215.502 230.629 215.481 230.673C215.459 230.716 215.459 230.759 215.481 230.803L220.067 240.268C220.11 240.355 220.132 240.42 220.132 240.463C220.132 240.637 220.013 240.724 219.774 240.724H216.652ZM207.804 221.207C207.696 221.207 207.642 221.261 207.642 221.37V227.843C207.642 227.951 207.696 228.005 207.804 228.005H212.683C213.724 228.005 214.559 227.702 215.188 227.095C215.838 226.466 216.164 225.642 216.164 224.623C216.164 223.603 215.838 222.779 215.188 222.151C214.559 221.522 213.724 221.207 212.683 221.207H207.804ZM228.909 240.691C228.801 240.691 228.703 240.659 228.617 240.594C228.552 240.507 228.519 240.409 228.519 240.301V231.583C228.519 231.497 228.508 231.432 228.486 231.388L221.786 218.41C221.743 218.323 221.721 218.258 221.721 218.215C221.721 218.041 221.84 217.955 222.079 217.955H225.299C225.516 217.955 225.667 218.052 225.754 218.247L230.308 227.322C230.373 227.409 230.438 227.409 230.503 227.322L235.09 218.247C235.198 218.052 235.35 217.955 235.545 217.955H238.798C238.949 217.955 239.047 217.998 239.09 218.085C239.155 218.171 239.155 218.28 239.09 218.41L232.357 231.388C232.314 231.475 232.292 231.54 232.292 231.583V240.301C232.292 240.409 232.249 240.507 232.162 240.594C232.097 240.659 232.01 240.691 231.902 240.691H228.909Z" fill="black"/>
</svg>
