<svg width="280" height="280" viewBox="0 0 280 280" fill="none" xmlns="http://www.w3.org/2000/svg">
<rect width="280" height="280" fill="white"/>
<path fill-rule="evenodd" clip-rule="evenodd" d="M145.545 39.0807C166.157 36.8905 203.752 34.4627 219.79 43.0257C228.361 47.6014 224.955 59.9194 225.134 74.3453C225.018 132.468 227.485 178.766 221.491 189.6C215.857 199.785 205.522 198.264 185.483 197.711C164.804 197.139 133.965 197.377 98.6533 198C86.8933 198.208 69.1369 201.458 61.1486 193.26C56.3568 188.341 55.9417 177.834 54.8992 170.834C52.6884 155.99 54.3582 135.747 53.8938 117.768C53.5516 104.524 55.7642 95.8115 54.9776 82.8038C53.9661 66.0781 50.6052 46.1851 58.0798 41.985C65.1548 38.0072 78.8889 39.5682 92.6364 38.557C115.309 36.8881 134.498 38.8749 145.545 39.0807Z" fill="#E5954C"/>
<path fill-rule="evenodd" clip-rule="evenodd" d="M145.3 41.1496C165.071 39.0266 201.134 36.672 216.517 44.9773C224.738 49.415 221.471 61.3638 221.645 75.3553C221.532 131.73 223.899 176.633 218.15 187.143C212.746 197.021 202.833 195.547 183.606 195.01C163.772 194.458 134.191 194.686 100.32 195.29C89.0388 195.492 72.0068 198.645 64.3434 190.693C59.7465 185.92 59.3491 175.732 58.348 168.942C56.2278 154.545 57.8286 134.908 57.3839 117.472C57.0566 104.625 59.1787 96.1753 58.4231 83.5596C57.453 67.3376 54.2307 48.041 61.3986 43.9677C68.1861 40.1086 81.3587 41.6234 94.5463 40.6429C116.297 39.0233 134.702 40.9505 145.3 41.1496Z" fill="white"/>
<path fill-rule="evenodd" clip-rule="evenodd" d="M144.698 43.7801C163.479 41.7365 197.737 39.4739 212.352 47.4613C220.16 51.7285 217.057 63.2214 217.221 76.6814C217.115 130.905 219.363 174.097 213.901 184.204C208.767 193.707 199.351 192.289 181.088 191.772C162.246 191.24 134.145 191.461 101.967 192.042C91.2522 192.235 75.0718 195.267 67.7926 187.618C63.4245 183.031 63.0482 173.23 62.0987 166.699C60.0836 152.85 61.6042 133.964 61.1812 117.192C60.8702 104.835 62.8862 96.7063 62.1702 84.5706C61.2474 68.9697 58.1856 50.4094 64.997 46.4905C71.4437 42.7789 83.9585 44.2348 96.4844 43.2908C117.145 41.7346 134.629 43.588 144.698 43.7801Z" fill="#E5954C"/>
<path fill-rule="evenodd" clip-rule="evenodd" d="M135.941 182.004C129.8 172.251 132.075 168.921 130.333 154.937C129.627 149.264 127.404 126.297 127.639 119.833C119.335 118.922 115.512 119.613 114.15 121.361C112.042 124.062 119.26 139.324 120.021 143.593C120.703 147.421 116.465 149.734 115.025 142.93C114.596 140.905 108.584 125.304 108.146 124.063C107.993 123.633 107.985 123.354 107.53 123.253C106.386 123.291 102.862 125.3 100.104 126.523C100.316 133.007 105.687 159.752 108.342 165.378C109.386 167.593 110.322 174.899 111.303 178.097C112.148 180.858 112.725 180.541 118.351 181.753C117.326 177.552 113.842 162.179 117.48 162.393C123.48 162.745 119.886 167.276 127.089 183.834C129.189 188.656 132.059 188.626 138.148 186.604L135.941 182.004Z" fill="white"/>
<path fill-rule="evenodd" clip-rule="evenodd" d="M161.144 187.068C163.442 187.047 166.25 186.713 169.193 186.114C175.439 184.845 182.301 182.378 186.214 179.151C191.111 173.641 186.972 168.634 186.972 168.626C179.065 161.999 170.045 182.485 173.011 156.107C173.439 152.295 178.303 132.266 176.29 131.404C160.256 124.531 165.215 138.451 165.203 151.228C165.188 164.179 159.502 174.859 161.144 187.068Z" fill="white"/>
<path fill-rule="evenodd" clip-rule="evenodd" d="M87.7515 177.986C93.0414 182.659 98.7225 183.716 104.41 180.675C104.47 180.527 105.184 178.99 105.235 176.835C105.342 172.263 105.821 164.744 101.497 165.859L95.1926 167.482C94.0528 169.73 99.9604 176.397 97.2904 177.19C94.7559 177.755 87.363 158.614 86.7272 155.979C85.9829 152.88 85.2616 149.253 86.3746 146.083C87.2199 143.675 90.5412 144.723 91.2156 152.789C92.228 164.924 94.947 165.647 101.357 157.459C101.384 157.216 97.7843 134.522 97.8007 131.616C97.7885 131.614 75.7932 134.1 73.5259 134.309C65.7677 135.016 82.3834 173.24 87.7515 177.986Z" fill="white"/>
<path fill-rule="evenodd" clip-rule="evenodd" d="M82.0189 107.765C89.7212 105.312 85.1697 116.681 81.8441 114.323C80.887 113.643 78.7547 108.804 82.0189 107.765ZM86.026 86.4006C86.0916 100.495 73.004 94.5257 84.6984 79.7297C87.1393 76.6393 86.0244 86.1569 86.026 86.4006ZM97.5009 90.0363C97.4735 84.1959 93.5732 60.5509 91.7356 56.7731C66.7363 63.9067 65.9169 125.363 74.2884 128.572C79.0364 130.392 108.931 109.274 96.7496 102.321C87.8793 97.2586 81.5797 101.213 92.7838 95.9499C96.1587 94.3646 97.4914 95.6198 97.5009 90.0363Z" fill="white"/>
<path fill-rule="evenodd" clip-rule="evenodd" d="M135.493 125.223C138.17 129.275 160.637 128.963 151.762 123.718C149.576 122.667 147.182 122.521 144.56 122.175C138.997 121.442 133.038 120.939 135.493 125.223Z" fill="white"/>
<path fill-rule="evenodd" clip-rule="evenodd" d="M128.976 52.2654C131.989 62.2748 128.485 75.2435 128.718 87.4093C128.878 95.7456 125.5 118.358 126.597 91.0125C126.806 85.8019 125.893 80.748 123.368 74.8086C122.04 71.1152 117.71 70.5794 114.468 72.4325C112.422 73.6014 100.748 76.118 99.9377 79.3092C98.8141 83.7418 100.913 98.501 102.738 103.455C104.173 103.144 108.084 99.7259 111.307 95.4633C112.905 93.3506 106.597 88.2418 108.062 79.0783C108.342 77.3252 109.483 76.5498 110.575 76.2043C117.101 76.0845 124.587 91.214 115.543 104.764C114.717 105.997 112.265 108.976 101.976 110.824C99.3216 111.3 97.3132 120.858 98.0213 123.282C108.627 122.428 116.9 113.495 134.44 113.212C134.452 113.178 135.276 105.886 135.305 104.823C136.697 95.7492 145.208 56.8161 141.099 48.5583C136.91 48.1136 132.742 50.4941 128.976 52.2654Z" fill="white"/>
<path fill-rule="evenodd" clip-rule="evenodd" d="M149.047 164.691C144.203 166.961 146.05 159.12 142.173 147.012C141.166 143.866 140.447 143.314 141.23 141.583C142.676 140.335 143.877 141.274 144.813 142.877C146.799 146.278 147.998 153.913 150.81 159.161C152.171 161.7 151.594 163.497 149.047 164.691ZM130.997 141.577C134.451 157.808 132.265 170.523 143.386 175.382C147.356 177.12 164.172 191.039 161.07 156.608C158.38 126.736 162.242 130.361 142.715 129.009C137.648 128.659 127.428 124.808 130.997 141.577Z" fill="white"/>
<path fill-rule="evenodd" clip-rule="evenodd" d="M152.097 64.4722C155.881 61.0797 156.605 66.7177 155.791 70.7187C151.023 94.1886 153.066 81.7161 154.574 96.5991C155.184 102.617 152.838 104.599 148.42 104.117C148.39 104.068 147.101 86.2194 141.318 91.8796C140.449 92.7281 139.155 110.471 138.887 113.284C143.813 113.61 142.319 116.033 162.826 116.257C162.889 93.5355 156.198 93.7664 159.429 81.1404C160.598 76.576 166.259 70.0569 166.558 67.8118C167.263 59.9217 158.415 51.9094 147.516 53.485C146.361 69.4554 145.991 64.1035 143.593 80.9356C155.031 81.9106 147.815 74.2318 152.097 64.4722Z" fill="white"/>
<path fill-rule="evenodd" clip-rule="evenodd" d="M191.517 139.688C190.431 140.096 190.076 138.131 190.092 137.517C189.813 135.755 189.809 133.301 189.823 131.526C189.847 128.395 191.532 128.036 194.039 130.764C195.148 132.912 194.922 139.411 191.517 139.688ZM181.899 128.105C181.793 131.283 180.578 132.958 178.587 144.684L176.822 165.158C178.761 165.783 182.456 165.629 182.813 161.554C182.981 149.71 196.201 141.712 196.148 149.956L196.019 170.053L198.998 171.834C205.509 173.408 205.611 164.386 205.816 163.376C207.747 153.89 208.219 126.949 198.458 121.083C195.353 119.715 191.883 118.547 185.641 119.243C180.343 119.832 178.709 120.462 175.023 123.333C173.261 124.705 173.128 128.904 175.609 129.511C177.799 130.049 180.772 128.277 181.899 128.105Z" fill="white"/>
<path fill-rule="evenodd" clip-rule="evenodd" d="M174.474 86.8631L174.47 86.8418L174.464 86.8047C174.279 85.6339 173.983 84.1341 173.954 82.605C173.957 82.5807 173.96 82.5582 173.967 82.5369C173.973 82.1199 173.973 80.8042 174.277 80.5079C174.786 80.0106 175.99 80.514 176.484 80.8361C176.525 80.8665 176.569 80.8938 176.616 80.9257L176.628 80.9318C176.687 80.9741 176.75 81.0191 176.816 81.068C178.631 82.4077 178.873 82.6327 178.667 84.597C178.453 86.326 177.984 87.8864 177.191 88.9408C176.914 89.3836 176.068 90.9069 175.419 89.9358C175.385 89.893 175.353 89.8404 175.328 89.7766C175.058 88.866 174.616 87.7934 174.474 86.8631ZM164.839 96.2917C164.83 101.559 166.58 115.481 169.229 117.091C174.237 120.132 190.169 114.966 195.989 114.498C206.22 113.674 203.492 111.917 204.177 101.117C205.162 85.6379 205.031 72.7175 188.476 75.9656C191.218 81.9962 193.692 90.7598 192.435 96.2272C189.793 110.188 177.148 110.269 176.175 97.4177C184.807 97.0466 185.468 96.3047 185.456 79.9079C185.444 65.1583 175.973 61.0255 165.841 76.3677C163.411 80.0449 164.845 91.4145 164.839 96.2917Z" fill="white"/>
<path d="M54.4913 238.724C54.2745 238.724 54.1335 238.615 54.0685 238.398L52.9951 234.918C52.9517 234.831 52.8975 234.788 52.8324 234.788H44.2452C44.1802 234.788 44.126 234.831 44.0826 234.918L43.0092 238.398C42.9441 238.615 42.8032 238.724 42.5863 238.724H39.3336C39.2035 238.724 39.1059 238.691 39.0409 238.626C38.9758 238.539 38.965 238.42 39.0083 238.268L46.0668 216.28C46.1318 216.063 46.2728 215.955 46.4896 215.955H50.5555C50.7724 215.955 50.9133 216.063 50.9784 216.28L58.0693 238.268C58.091 238.312 58.1018 238.366 58.1018 238.431C58.1018 238.626 57.9826 238.724 57.744 238.724H54.4913ZM45.0909 231.633C45.0693 231.763 45.1126 231.828 45.2211 231.828H51.8241C51.9542 231.828 51.9976 231.763 51.9542 231.633L48.6039 220.736C48.5822 220.649 48.5497 220.606 48.5063 220.606C48.4629 220.606 48.4304 220.649 48.4087 220.736L45.0909 231.633ZM74.2496 238.724C74.0327 238.724 73.881 238.626 73.7942 238.431L69.5006 229.063C69.4572 228.976 69.3922 228.933 69.3055 228.933H65.4022C65.2938 228.933 65.2395 228.987 65.2395 229.096V238.333C65.2395 238.442 65.1962 238.539 65.1094 238.626C65.0444 238.691 64.9576 238.724 64.8492 238.724H61.8567C61.7483 238.724 61.6507 238.691 61.564 238.626C61.4989 238.539 61.4664 238.442 61.4664 238.333V216.345C61.4664 216.236 61.4989 216.15 61.564 216.085C61.6507 215.998 61.7483 215.955 61.8567 215.955H70.8017C72.1245 215.955 73.2955 216.236 74.3147 216.8C75.3338 217.342 76.1253 218.123 76.6891 219.142C77.2529 220.14 77.5349 221.289 77.5349 222.59C77.5349 224.086 77.1445 225.366 76.3639 226.428C75.6049 227.469 74.5423 228.196 73.1762 228.608C73.1328 228.608 73.1003 228.629 73.0786 228.673C73.0569 228.716 73.0569 228.759 73.0786 228.803L77.665 238.268C77.7083 238.355 77.73 238.42 77.73 238.463C77.73 238.637 77.6107 238.724 77.3722 238.724H74.2496ZM65.4022 219.207C65.2938 219.207 65.2395 219.261 65.2395 219.37V225.843C65.2395 225.951 65.2938 226.005 65.4022 226.005H70.2813C71.3221 226.005 72.157 225.702 72.7859 225.095C73.4364 224.466 73.7617 223.642 73.7617 222.623C73.7617 221.603 73.4364 220.779 72.7859 220.151C72.157 219.522 71.3221 219.207 70.2813 219.207H65.4022ZM96.3455 215.955C96.4539 215.955 96.5407 215.998 96.6057 216.085C96.6925 216.15 96.7358 216.236 96.7358 216.345V218.849C96.7358 218.958 96.6925 219.055 96.6057 219.142C96.5407 219.207 96.4539 219.24 96.3455 219.24H90.3605C90.2521 219.24 90.1979 219.294 90.1979 219.402V238.333C90.1979 238.442 90.1545 238.539 90.0678 238.626C90.0027 238.691 89.916 238.724 89.8075 238.724H86.815C86.7066 238.724 86.609 238.691 86.5223 238.626C86.4572 238.539 86.4247 238.442 86.4247 238.333V219.402C86.4247 219.294 86.3705 219.24 86.2621 219.24H80.5047C80.3963 219.24 80.2987 219.207 80.212 219.142C80.1469 219.055 80.1144 218.958 80.1144 218.849V216.345C80.1144 216.236 80.1469 216.15 80.212 216.085C80.2987 215.998 80.3963 215.955 80.5047 215.955H96.3455ZM114.343 238.984C112.716 238.984 111.285 238.669 110.049 238.041C108.813 237.39 107.859 236.479 107.187 235.308C106.515 234.137 106.178 232.793 106.178 231.275V223.403C106.178 221.864 106.515 220.519 107.187 219.37C107.859 218.199 108.813 217.299 110.049 216.67C111.285 216.02 112.716 215.694 114.343 215.694C115.947 215.694 117.357 216.009 118.571 216.638C119.807 217.266 120.761 218.123 121.434 219.207C122.106 220.292 122.442 221.517 122.442 222.883V223.143C122.442 223.251 122.399 223.349 122.312 223.436C122.247 223.501 122.16 223.533 122.052 223.533H119.092C118.983 223.533 118.886 223.501 118.799 223.436C118.734 223.349 118.701 223.251 118.701 223.143V222.98C118.701 221.809 118.3 220.844 117.498 220.086C116.717 219.327 115.666 218.947 114.343 218.947C113.02 218.947 111.957 219.348 111.155 220.151C110.353 220.931 109.952 221.972 109.952 223.273V231.405C109.952 232.706 110.374 233.758 111.22 234.56C112.066 235.341 113.161 235.731 114.505 235.731C115.806 235.731 116.826 235.395 117.563 234.723C118.322 234.029 118.701 233.086 118.701 231.893V229.876C118.701 229.768 118.647 229.714 118.539 229.714H114.538C114.429 229.714 114.332 229.681 114.245 229.616C114.18 229.529 114.148 229.432 114.148 229.323V226.916C114.148 226.808 114.18 226.721 114.245 226.656C114.332 226.569 114.429 226.526 114.538 226.526H122.052C122.16 226.526 122.247 226.569 122.312 226.656C122.399 226.721 122.442 226.808 122.442 226.916V231.08C122.442 233.573 121.705 235.514 120.23 236.902C118.777 238.29 116.815 238.984 114.343 238.984ZM140.479 238.724C140.262 238.724 140.121 238.615 140.056 238.398L138.983 234.918C138.939 234.831 138.885 234.788 138.82 234.788H130.233C130.168 234.788 130.114 234.831 130.07 234.918L128.997 238.398C128.932 238.615 128.791 238.724 128.574 238.724H125.321C125.191 238.724 125.094 238.691 125.028 238.626C124.963 238.539 124.953 238.42 124.996 238.268L132.054 216.28C132.119 216.063 132.26 215.955 132.477 215.955H136.543C136.76 215.955 136.901 216.063 136.966 216.28L144.057 238.268C144.079 238.312 144.089 238.366 144.089 238.431C144.089 238.626 143.97 238.724 143.732 238.724H140.479ZM131.079 231.633C131.057 231.763 131.1 231.828 131.209 231.828H137.812C137.942 231.828 137.985 231.763 137.942 231.633L134.591 220.736C134.57 220.649 134.537 220.606 134.494 220.606C134.451 220.606 134.418 220.649 134.396 220.736L131.079 231.633ZM147.844 238.724C147.736 238.724 147.638 238.691 147.552 238.626C147.487 238.539 147.454 238.442 147.454 238.333V216.345C147.454 216.236 147.487 216.15 147.552 216.085C147.638 215.998 147.736 215.955 147.844 215.955H150.837C150.945 215.955 151.032 215.998 151.097 216.085C151.184 216.15 151.227 216.236 151.227 216.345V235.308C151.227 235.417 151.281 235.471 151.39 235.471H162.286C162.395 235.471 162.482 235.514 162.547 235.601C162.633 235.666 162.677 235.753 162.677 235.861V238.333C162.677 238.442 162.633 238.539 162.547 238.626C162.482 238.691 162.395 238.724 162.286 238.724H147.844ZM166.427 238.724C166.318 238.724 166.221 238.691 166.134 238.626C166.069 238.539 166.036 238.442 166.036 238.333V216.345C166.036 216.236 166.069 216.15 166.134 216.085C166.221 215.998 166.318 215.955 166.427 215.955H169.419C169.528 215.955 169.614 215.998 169.679 216.085C169.766 216.15 169.81 216.236 169.81 216.345V235.308C169.81 235.417 169.864 235.471 169.972 235.471H180.869C180.977 235.471 181.064 235.514 181.129 235.601C181.216 235.666 181.259 235.753 181.259 235.861V238.333C181.259 238.442 181.216 238.539 181.129 238.626C181.064 238.691 180.977 238.724 180.869 238.724H166.427ZM200.037 218.817C200.037 218.925 199.993 219.023 199.907 219.11C199.842 219.175 199.755 219.207 199.647 219.207H188.555C188.446 219.207 188.392 219.261 188.392 219.37V225.453C188.392 225.561 188.446 225.615 188.555 225.615H196.003C196.112 225.615 196.199 225.659 196.264 225.745C196.35 225.81 196.394 225.897 196.394 226.005V228.478C196.394 228.586 196.35 228.684 196.264 228.77C196.199 228.835 196.112 228.868 196.003 228.868H188.555C188.446 228.868 188.392 228.922 188.392 229.031V235.308C188.392 235.417 188.446 235.471 188.555 235.471H199.647C199.755 235.471 199.842 235.514 199.907 235.601C199.993 235.666 200.037 235.753 200.037 235.861V238.333C200.037 238.442 199.993 238.539 199.907 238.626C199.842 238.691 199.755 238.724 199.647 238.724H185.009C184.901 238.724 184.803 238.691 184.716 238.626C184.651 238.539 184.619 238.442 184.619 238.333V216.345C184.619 216.236 184.651 216.15 184.716 216.085C184.803 215.998 184.901 215.955 185.009 215.955H199.647C199.755 215.955 199.842 215.998 199.907 216.085C199.993 216.15 200.037 216.236 200.037 216.345V218.817ZM216.652 238.724C216.435 238.724 216.283 238.626 216.196 238.431L211.903 229.063C211.859 228.976 211.794 228.933 211.708 228.933H207.804C207.696 228.933 207.642 228.987 207.642 229.096V238.333C207.642 238.442 207.598 238.539 207.512 238.626C207.446 238.691 207.36 238.724 207.251 238.724H204.259C204.15 238.724 204.053 238.691 203.966 238.626C203.901 238.539 203.868 238.442 203.868 238.333V216.345C203.868 216.236 203.901 216.15 203.966 216.085C204.053 215.998 204.15 215.955 204.259 215.955H213.204C214.527 215.955 215.698 216.236 216.717 216.8C217.736 217.342 218.527 218.123 219.091 219.142C219.655 220.14 219.937 221.289 219.937 222.59C219.937 224.086 219.547 225.366 218.766 226.428C218.007 227.469 216.944 228.196 215.578 228.608C215.535 228.608 215.502 228.629 215.481 228.673C215.459 228.716 215.459 228.759 215.481 228.803L220.067 238.268C220.11 238.355 220.132 238.42 220.132 238.463C220.132 238.637 220.013 238.724 219.774 238.724H216.652ZM207.804 219.207C207.696 219.207 207.642 219.261 207.642 219.37V225.843C207.642 225.951 207.696 226.005 207.804 226.005H212.683C213.724 226.005 214.559 225.702 215.188 225.095C215.838 224.466 216.164 223.642 216.164 222.623C216.164 221.603 215.838 220.779 215.188 220.151C214.559 219.522 213.724 219.207 212.683 219.207H207.804ZM228.909 238.691C228.801 238.691 228.703 238.659 228.617 238.594C228.552 238.507 228.519 238.409 228.519 238.301V229.583C228.519 229.497 228.508 229.432 228.486 229.388L221.786 216.41C221.743 216.323 221.721 216.258 221.721 216.215C221.721 216.041 221.84 215.955 222.079 215.955H225.299C225.516 215.955 225.667 216.052 225.754 216.247L230.308 225.322C230.373 225.409 230.438 225.409 230.503 225.322L235.09 216.247C235.198 216.052 235.35 215.955 235.545 215.955H238.798C238.949 215.955 239.047 215.998 239.09 216.085C239.155 216.171 239.155 216.28 239.09 216.41L232.357 229.388C232.314 229.475 232.292 229.54 232.292 229.583V238.301C232.292 238.409 232.249 238.507 232.162 238.594C232.097 238.659 232.01 238.691 231.902 238.691H228.909Z" fill="black"/>
</svg>
