<svg width="94" height="52" viewBox="0 0 94 52" fill="none" xmlns="http://www.w3.org/2000/svg">
<path fill-rule="evenodd" clip-rule="evenodd" d="M1.47175 43.7419C8.40545 54.8981 66.5816 54.0394 43.6012 39.5977C37.9409 36.703 31.7415 36.3006 24.9526 35.3491C10.5453 33.3306 -4.88584 31.9447 1.47175 43.7419Z" fill="#E5954C"/>
<path fill-rule="evenodd" clip-rule="evenodd" d="M92.4716 26.7419C85.5379 37.8981 27.3618 37.0394 50.3421 22.5977C56.0024 19.703 62.2019 19.3006 68.9908 18.3491C83.3981 16.3306 98.8292 14.9447 92.4716 26.7419Z" fill="#E5954C"/>
<path fill-rule="evenodd" clip-rule="evenodd" d="M16.0224 6.76758C20.8391 14.5175 61.253 13.921 45.289 3.88869C41.3569 1.8778 37.0502 1.59823 32.3341 0.937234C22.3256 -0.46498 11.6059 -1.4277 16.0224 6.76758Z" fill="#E5954C"/>
</svg>
