<svg width="168" height="161" viewBox="0 0 168 161" fill="none" xmlns="http://www.w3.org/2000/svg">
<rect width="168" height="160.857" rx="20" fill="white"/>
<g clip-path="url(#clip0_46_31)">
<path d="M84.5609 155.061C68.745 155.061 52.9286 155.061 37.1117 155.061C35.4748 155.061 33.838 155.201 32.2011 155.223C14.2301 155.46 8.98767 151.44 8.06211 133.52C6.94013 111.586 7.16036 89.584 6.79281 67.6116C6.58846 55.4542 6.37815 43.2969 6.16188 31.1396C6.0979 27.3258 5.76458 23.4851 6.08897 19.701C6.85531 10.7936 9.37605 7.99908 18.3251 7.62855C35.9331 6.89793 53.562 6.61222 71.1834 6.28188C91.3434 5.90242 111.509 5.49024 131.665 5.49917C137.421 5.49917 143.272 6.50508 148.91 7.77587C159.961 10.2639 162.199 13.5465 162.153 24.8779C162.069 48.8816 162.21 72.8867 161.984 96.8873C161.856 110.513 161.627 124.165 160.627 137.746C159.71 150.204 154.508 154.595 141.824 154.678C132.192 154.742 122.558 154.15 112.923 154.024C103.468 153.9 94.01 153.997 84.552 153.997L84.5609 155.061ZM106.047 135.554V149.749C114.729 149.537 122.338 147.499 129.26 143.231C133.117 140.85 134.72 137.228 132.638 132.947C130.436 128.42 126.655 129.575 123.286 131.319C118.711 133.688 117.334 131.676 117.363 127.431C117.354 125.432 117.493 123.436 117.78 121.458C118.958 113.928 120.144 106.399 121.512 98.9021C122.405 93.9707 119.384 93.002 115.631 92.5467C111.429 92.0363 109.439 94.1954 109.381 98.1313C109.317 102.298 110.076 106.534 109.621 110.644C108.694 119.043 107.194 127.379 105.929 135.74C105.454 123.779 105.023 111.817 104.484 99.8589C104.274 95.2118 102.041 92.4797 97.0351 92.3205C92.6901 92.1836 88.3569 91.6821 84.0163 91.3771C76.9644 90.8801 74.4928 93.1255 75.2606 100.113C76.0746 107.504 77.6415 114.812 78.4778 122.202C79.448 130.719 83.4329 136.553 91.4237 140.152C99.5336 143.814 102.184 143.301 106.047 135.554ZM46.8226 66.5967C55.9845 61.6118 56.9071 59.2532 54.1602 51.1077C53.5828 49.4009 52.8537 47.514 53.0754 45.8251C53.3566 43.6957 54.5411 41.6854 55.3357 39.6244C57.2627 40.7435 59.7671 41.4101 61.023 43.0469C68.8992 53.307 63.4039 69.354 51.0531 72.7617C44.1977 74.6515 41.8615 78.8269 43.7945 86.4814C46.5593 85.6332 49.2883 84.7776 52.0308 83.9443C60.3103 81.4146 68.6269 79.007 76.8364 76.2749C78.1028 75.8538 79.5149 74.1143 79.7872 72.7691C81.0357 66.5506 82.0803 60.277 82.8734 53.9826C84.4359 41.5782 85.9061 29.1576 87.1025 16.7131C87.3063 14.5807 87.4834 11.2906 83.2767 11.6612C78.3394 12.0957 74.3708 14.9215 74.408 18.2085C74.472 24.0119 74.6371 29.8153 74.3529 35.6052C73.8782 45.2448 73.0806 54.868 72.4185 64.4986C71.5866 60.6178 71.8232 56.792 71.5256 53.0079C71.2247 49.0422 70.6107 45.1064 69.6894 41.2375C68.8189 37.6573 67.429 34.1306 62.6167 34.3925C56.2018 34.7496 45.3048 40.4458 44.6799 43.7895C44.5629 44.3232 44.5223 44.8708 44.5593 45.4159C45.2721 52.2326 46.0102 59.0434 46.8212 66.5967H46.8226ZM37.7679 19.7606C31.0628 21.3141 26.8814 24.808 24.7327 29.5817C21.2625 37.2793 18.09 45.2805 16.2106 53.4796C13.7286 64.2992 13.2345 75.4535 16.2106 86.3951C17.6987 91.9009 19.8028 93.1553 24.3413 90.2328C30.3768 86.3475 36.3721 82.0485 41.305 76.894C47.3494 70.5817 45.7051 66.0313 37.5283 63.2739C36.076 62.7829 34.6028 62.3513 32.4288 61.6683C34.9257 60.5076 36.6444 59.4362 38.5164 58.8946C41.9761 57.8902 43.1412 55.5837 42.6636 52.3055C41.1205 41.7449 39.494 31.1962 37.7679 19.7606ZM121.49 62.5165C124.873 59.9109 128.915 58.3202 129.079 56.4021C129.698 49.0709 129.559 41.6953 128.665 34.3925C128.219 30.8212 124.699 28.415 120.708 30.0906C114.728 32.6068 109.652 37.0323 109.581 43.657C109.472 54.1165 110.721 64.6027 111.655 75.0547C112.038 79.3225 114.734 81.5813 119.159 80.94C127.76 79.6915 136.363 78.4207 144.902 76.8359C146.309 76.5755 148.459 74.6976 148.489 73.5235C148.715 64.4867 149.233 55.3531 148.191 46.4218C147.358 39.2926 140.486 36.6737 133.595 39.7256C134.273 41.7553 135.003 43.785 135.632 45.8445C137.467 51.8621 138.459 57.908 135.516 63.8736C133.823 67.2961 131.415 70.3168 127.164 69.4523C123.045 68.6071 121.738 65.1771 121.49 62.5165ZM64.0988 109.696L62.1286 110.158L52.8314 86.1898C46.7393 87.4516 44.0861 89.8206 45.6887 96.0763C49.3836 110.469 52.5337 125.005 55.7866 139.508C56.7256 143.686 59.2686 144.405 62.7492 143.884C62.0825 137.634 61.459 131.792 60.837 125.95L63.0691 125.001C64.2878 126.736 65.9455 128.312 66.6404 130.237C68.426 135.172 69.49 140.374 71.3768 145.267C73.7488 151.409 76.6951 152.155 82.4925 148.857C71.9587 127.977 76.3201 104.705 71.7667 82.5872C69.6626 82.4548 67.496 82.1125 65.3517 82.2197C58.91 82.5426 57.6258 84.2851 59.4725 90.5081C60.8117 95.0258 62.712 99.3798 64.014 103.9C64.5289 105.698 64.0988 107.753 64.0988 109.696ZM121.091 127.776C125.976 128.669 126.832 126.504 128.015 123.388C129.683 119.001 131.893 114.492 135.016 111.083C137.86 107.981 140.662 109.613 140.776 113.995C140.918 119.442 140.55 124.909 140.913 130.334C141.014 131.834 142.736 134.118 144.068 134.405C145.522 134.719 147.59 133.392 148.993 132.279C149.828 131.617 150.063 130.02 150.285 128.791C152.273 117.779 152.691 106.768 150.014 95.8085C146.856 82.8967 134.806 77.5055 123.138 84.0797C121.097 85.23 120.162 88.343 118.71 90.5497C120.909 90.9961 123.112 91.4158 125.303 91.889C125.601 91.9544 125.845 92.2714 125.713 92.1732C124.176 104.055 122.664 115.693 121.095 127.776H121.091ZM42.7008 94.4722C35.7918 95.2162 29.3322 95.8114 22.8964 96.6195C16.349 97.4364 14.861 98.8054 17.0201 104.939C20.9768 116.165 25.6731 127.16 30.6461 137.983C32.7874 142.643 37.4108 145.316 42.6784 145.028C45.1858 144.892 49.4714 143.22 49.6886 141.755C50.2838 137.7 49.4818 133.307 48.3702 129.286C48.2214 128.763 43.0252 129.638 39.6384 129.907C40.9285 133.716 41.8422 136.413 43.2454 140.558C34.2159 131.264 29.0435 113.503 34.0597 106.981C35.085 112.149 35.6861 116.291 36.7962 120.291C37.3185 122.187 38.8214 123.807 39.8631 125.551C41.5922 124.361 43.7037 123.468 44.9224 121.894C45.8658 120.675 46.1396 118.538 45.9387 116.904C45.0712 109.708 43.8986 102.545 42.7008 94.4722ZM108.411 79.9132C107.37 72.4998 107.28 66.2232 105.49 60.4898C102.538 51.0169 103.367 42.6229 109.508 34.8062C112.782 30.6516 111.853 26.5356 108.913 22.8289C104.764 17.6103 99.2746 15.5702 92.6514 16.6104C91.2407 25.8928 89.8925 34.7496 88.5414 43.6332C93.7867 44.6466 95.4891 42.6526 95.5218 38.1885C95.5516 34.1708 94.7956 29.668 99.4845 26.2499C100.059 28.0445 100.734 29.0579 100.624 29.97C99.3357 40.6839 96.6066 51.2639 99.1779 62.2501C99.8356 65.0685 97.5411 67.3556 93.7689 66.3854C92.9802 63.2501 92.4178 60.03 91.2958 57.0182C90.8181 55.7325 89.1723 54.8784 88.0578 53.8293C87.1828 55.0703 85.7469 56.2251 85.537 57.5702C84.8377 62.0507 84.9076 66.6637 84.049 71.1114C83.2097 75.4848 85.1591 77.1097 88.9521 77.5874C94.8715 78.3314 100.795 79.007 108.411 79.9132ZM98.3431 88.9367C95.9385 85.9026 84.0579 82.9979 81.2916 85.0916C80.6964 85.538 80.8914 88.3653 81.6592 89.0602C84.6189 91.7134 94.3954 91.4232 98.3431 88.9367Z" fill="black"/>
<path d="M31.17 43.6182C30.9155 46.9916 30.92 50.4156 30.2772 53.7131C30.0421 54.9035 28.243 55.7889 27.1523 56.8127C26.5005 55.5107 25.0571 53.9929 25.3428 52.9438C26.2788 49.502 27.8427 46.2297 29.1656 42.8936L31.17 43.6182Z" fill="black"/>
<path d="M26.5223 73.0649C26.0579 71.2076 31.5945 69.6743 31.1662 73.5293C30.7018 77.7089 27.4511 80.0309 26.5223 73.0649Z" fill="black"/>
<path d="M118.682 42.9717C125.321 46.0742 122.938 49.1828 121.755 52.144L120.1 52.3969C119.686 49.6411 119.271 46.8912 118.682 42.9717Z" fill="black"/>
<path d="M91.2512 127.298C89.5489 119.823 87.8455 112.349 86.1412 104.875L87.4388 104.077C88.4998 105.416 89.9402 106.593 90.5488 108.108C92.4357 112.819 94.2942 117.583 95.5338 122.486C95.9326 124.059 94.3731 126.125 93.7094 127.968L91.2512 127.298Z" fill="black"/>
<path d="M135.287 103.378C135.067 98.8867 134.91 95.7112 134.724 91.9658C140.123 94.7187 140.397 98.1352 135.287 103.378Z" fill="black"/>
</g>
<defs>
<clipPath id="clip0_46_31">
<rect x="5.95209" y="5.50586" width="156.21" height="149.734" rx="20" fill="white"/>
</clipPath>
</defs>
</svg>
