<svg width="324" height="308" viewBox="0 0 324 308" fill="none" xmlns="http://www.w3.org/2000/svg">
<path fill-rule="evenodd" clip-rule="evenodd" d="M173.269 3.95107C212.002 -0.208111 282.655 -4.82103 312.794 11.4501C325.011 18.045 324.278 33.107 323.36 51.9602V51.9609V51.9615V51.9622V51.963V51.9638V51.9647C323.068 57.9644 322.757 64.348 322.84 70.9648C322.784 98.5007 323.031 124.64 323.259 148.685V148.686V148.687V148.688V148.689V148.69V148.69V148.691V148.692V148.692V148.693C323.942 221.091 324.447 274.515 315.992 289.971C306.474 307.368 289.819 306.793 259.188 305.735L259.187 305.735C255.743 305.616 252.123 305.491 248.317 305.385C209.459 304.303 151.505 304.749 85.1463 305.934C80.7802 306.012 75.9743 306.316 70.957 306.633C50.5779 307.92 26.7117 309.429 14.6642 296.927C7.21682 289.195 5.39561 274.208 3.87919 261.729C3.56181 259.118 3.25778 256.616 2.91832 254.313C0.242935 236.146 0.591721 213.722 0.946165 190.933C1.14203 178.34 1.33963 165.636 1.02957 153.478C0.730983 141.759 1.47272 131.908 2.20133 122.23C3.03759 111.123 3.85656 100.246 3.06551 87.0382C2.72434 81.3334 2.241 75.4345 1.75874 69.5488C-0.445616 42.6458 -2.62728 16.0198 8.89494 9.47213C18.027 4.28001 33.0591 4.05326 49.9487 3.79848C57.6524 3.68228 65.7427 3.56024 73.8358 2.95852C105.255 0.61887 133.111 2.05699 153.9 3.13025C161.306 3.51259 167.815 3.84862 173.269 3.95107ZM154.934 279.905C146.527 266.552 146.171 259.344 145.554 246.865C145.289 241.486 144.975 235.127 143.947 226.875C142.564 215.762 138.21 170.767 138.669 158.103C122.401 156.317 114.912 157.672 112.242 161.095C109.51 164.596 114.772 178.862 119.08 190.541C121.285 196.519 123.24 201.82 123.744 204.651C125.081 212.152 116.777 216.682 113.957 203.353C113.314 200.321 106.284 181.755 102.622 172.084L102.621 172.083L102.621 172.082L102.621 172.082C101.492 169.099 100.683 166.963 100.481 166.39C100.432 166.254 100.391 166.126 100.353 166.006C100.153 165.381 100.021 164.969 99.2734 164.804C97.7923 164.853 94.2754 166.588 90.5005 168.451C88.5629 169.407 86.5574 170.397 84.7244 171.209C85.1394 183.913 95.6615 236.31 100.864 247.332C102.021 249.787 103.11 255.433 104.186 261.009L104.186 261.009C105.012 265.289 105.83 269.528 106.665 272.249C108.083 276.883 109.116 277.093 116.314 278.55C117.517 278.793 118.894 279.072 120.473 279.412C118.465 271.182 111.639 241.064 118.767 241.484C125.388 241.873 126.045 244.859 127.879 253.191C129.3 259.65 131.429 269.323 137.592 283.489C141.705 292.937 147.328 292.878 159.257 288.917L154.934 279.905ZM220.079 287.957C214.313 289.13 208.812 289.784 204.311 289.825C202.528 276.567 205.155 264.229 207.857 251.543L207.857 251.543C210.029 241.343 212.249 230.918 212.262 219.61C212.267 214.579 211.878 209.457 211.509 204.594L211.509 204.594V204.593V204.593V204.593C210.042 185.261 208.885 170.014 233.984 180.771C236.817 181.986 232.694 202.591 229.838 216.862L229.838 216.863L229.838 216.863C228.72 222.45 227.796 227.067 227.56 229.168C224.031 260.548 229.16 258.075 237.202 254.198C242.404 251.69 248.825 248.595 254.91 253.694L254.911 253.696L254.915 253.701L254.925 253.714C255.308 254.205 262.777 263.792 253.425 274.315C245.76 280.636 232.316 285.47 220.079 287.957ZM60.5235 272.033C70.8872 281.188 82.0172 283.259 93.1603 277.301C93.1676 277.283 93.1797 277.254 93.1961 277.216C93.4452 276.633 94.6819 273.738 94.7758 269.778C94.7884 269.242 94.8036 268.685 94.8193 268.112C95.0652 259.117 95.4178 246.221 87.4519 248.273L75.1016 251.454C74.0712 253.487 75.981 257.362 77.8227 261.1C79.972 265.462 82.0285 269.636 79.2115 270.472C74.2461 271.579 59.7625 234.079 58.5168 228.918C57.0586 222.847 55.6456 215.741 57.8262 209.529C59.4821 204.812 65.9889 206.866 67.3102 222.668C69.2937 246.441 74.6205 247.859 87.1784 231.818C87.1931 231.688 86.6788 228.285 85.9239 223.288L85.9238 223.288C83.9112 209.968 80.1879 185.327 80.2113 181.187C80.2064 181.186 78.359 181.394 75.3923 181.727L75.3654 181.73C63.9716 183.012 36.1742 186.139 32.6537 186.463C17.4544 187.848 50.0068 262.735 60.5235 272.033ZM49.2928 134.459C64.3825 129.654 55.4656 151.927 48.9503 147.308C47.0752 145.976 42.8977 136.495 49.2928 134.459ZM54.5422 79.5345C31.6313 108.522 57.2717 120.218 57.1431 92.6038C57.1428 92.5581 57.1626 92.3453 57.1945 92.0033L57.1945 92.003C57.4949 88.7772 58.8656 74.0606 54.5422 79.5345ZM68.3291 34.5594C71.9292 41.9608 79.5704 88.2845 79.624 99.7265C79.6098 108.133 78.0645 108.627 74.3491 109.815C73.2297 110.172 71.9134 110.593 70.3827 111.312C68.0901 112.389 66.1715 113.269 64.5937 113.993L64.5934 113.993L64.593 113.993C60.2947 115.965 58.5256 116.776 58.6118 117.25C58.6721 117.582 59.6399 117.749 61.2845 118.033C64.6888 118.62 70.9931 119.708 78.1521 123.794C102.017 137.415 43.4496 178.789 34.1475 175.224C17.7466 168.936 19.352 48.5351 68.3291 34.5594ZM154.055 168.663C159.301 176.601 203.316 175.99 185.929 165.714C182.314 163.976 178.408 163.501 174.189 162.988H174.189L174.188 162.988C173.41 162.893 172.62 162.797 171.82 162.691C160.92 161.255 149.245 160.269 154.055 168.663ZM142.264 67.874C143.658 52.7527 145.009 38.089 141.288 25.7287C142.229 25.2862 143.182 24.8244 144.147 24.357L144.147 24.3569C150.749 21.159 157.878 17.7058 165.038 18.4659C171.597 31.6446 161.748 84.7013 156.396 113.531L156.396 113.532L156.396 113.534L156.396 113.535L156.395 113.538L156.395 113.539C155.177 120.097 154.193 125.401 153.688 128.696C153.632 130.779 152.017 145.065 151.993 145.131C131.966 145.455 118.106 151.533 105.913 156.881C97.1857 160.709 89.3127 164.162 80.6441 164.86C79.2567 160.111 83.1915 141.385 88.3916 140.452C108.55 136.833 113.354 130.997 114.971 128.58C132.69 102.034 118.024 72.3935 105.238 72.6281C103.1 73.3052 100.864 74.8243 100.315 78.2588C98.5955 89.0154 102.343 96.9202 104.949 102.419C106.693 106.098 107.927 108.7 106.672 110.359C100.359 118.71 92.6959 125.406 89.8854 126.016C86.3086 116.311 82.1972 87.3952 84.3985 78.7112C85.5182 74.303 97.2182 70.5519 105.427 67.92L105.427 67.9199L105.427 67.9199C108.861 66.8191 111.684 65.9141 112.866 65.2387C119.218 61.6083 127.7 62.658 130.302 69.8939C135.249 81.5301 137.036 91.4312 136.628 101.64C134.478 155.213 141.097 110.912 140.784 94.5804C140.615 85.7691 141.447 76.7428 142.264 67.874ZM180.61 245.985C174.682 248.763 173.868 243.814 172.242 233.927L172.242 233.927C171.265 227.983 169.994 220.256 167.142 211.35C166.625 209.734 166.147 208.468 165.75 207.418C164.633 204.461 164.163 203.217 165.296 200.713C168.128 198.269 170.481 200.109 172.315 203.248C174.14 206.373 175.625 211.322 177.256 216.757L177.256 216.757L177.256 216.757C179.103 222.913 181.138 229.692 184.065 235.152C186.73 240.125 185.599 243.646 180.61 245.985ZM149.002 224.471V224.471C151.581 244.672 153.531 259.946 169.518 266.93C170.411 267.321 171.636 268.026 173.095 268.867C184.347 275.348 209.544 289.862 204.164 230.149C203.337 220.969 202.827 213.403 202.405 207.162L202.405 207.157V207.157C201.308 190.902 200.817 183.628 196.932 180.194C193.784 177.411 188.41 177.149 178.682 176.673C175.638 176.524 172.166 176.354 168.204 176.08C166.919 175.991 165.464 175.788 163.921 175.571C153.546 174.118 139.161 172.103 145.247 200.703C147.048 209.167 148.067 217.143 149.002 224.471ZM193.823 61.8809C195.417 54.0425 193.998 42.997 186.585 49.6433C183.368 56.9759 183.464 63.709 183.541 69.1162C183.665 77.8087 183.74 83.0749 169.924 81.8973C171.856 68.3408 173.116 62.1294 174.087 57.3412L174.088 57.3408L174.088 57.3406C175.479 50.4818 176.278 46.5431 177.61 28.1179C198.964 25.0311 216.298 40.7282 214.916 56.186C214.655 58.1462 212.307 61.7695 209.582 65.9757C206.192 71.2076 202.218 77.3415 200.949 82.2987C197.756 94.7797 199.511 100.848 202.018 109.516C204.48 118.026 207.666 129.043 207.605 151.096C179.813 150.793 172.647 148.428 167.675 146.787C165.46 146.056 163.68 145.469 160.705 145.272C160.797 144.307 160.95 142.445 161.15 140.02L161.15 140.019C162.092 128.6 164.063 104.709 165.468 103.338C176.118 92.9145 178.988 123.186 179.344 126.936L179.344 126.937C179.367 127.176 179.379 127.307 179.383 127.312C188.038 128.258 192.634 124.374 191.439 112.584C190.469 103.014 189.386 99.2174 188.7 96.8095C188.466 95.99 188.278 95.3314 188.156 94.6608C187.657 91.9144 188.263 88.967 191.352 73.949L191.352 73.9484C192.046 70.5784 192.864 66.6006 193.823 61.8809ZM263.814 197.002C261.687 197.801 260.992 193.95 261.022 192.749C260.476 189.295 260.468 184.488 260.496 181.011C260.543 174.876 263.845 174.174 268.756 179.517C270.929 183.725 270.484 196.459 263.814 197.002ZM244.972 174.309C244.875 177.185 244.316 179.433 243.357 183.283C242.24 187.768 240.581 194.428 238.482 206.79L235.024 246.901C238.824 248.125 246.063 247.823 246.761 239.839C247.091 216.636 272.991 200.967 272.886 217.117L272.635 256.491L278.47 259.979C289.83 262.727 291.233 249.01 291.686 244.576C291.742 244.03 291.784 243.625 291.827 243.409C295.61 224.825 296.535 172.043 277.413 160.551C271.33 157.871 264.531 155.584 252.303 156.946C241.924 158.1 238.722 159.334 231.501 164.959C228.048 167.649 227.788 175.873 232.648 177.064C235.629 177.796 239.351 176.343 242.086 175.275C243.287 174.806 244.298 174.412 244.972 174.309ZM230.418 93.4683L230.424 93.5101C230.614 94.7511 231.076 96.1212 231.519 97.4325C231.726 98.047 231.929 98.6486 232.098 99.2179C232.146 99.343 232.209 99.446 232.277 99.5299C233.466 101.31 234.994 98.8109 235.629 97.7718C235.673 97.7005 235.712 97.6362 235.747 97.5805C237.301 95.5149 238.22 92.4579 238.64 89.0704C239.043 85.222 238.569 84.7814 235.013 82.1567C234.884 82.0608 234.761 81.9727 234.645 81.8899L234.621 81.8779C234.53 81.8154 234.444 81.7619 234.363 81.7024C233.394 81.0712 231.036 80.0851 230.038 81.0593C229.473 81.6099 229.444 83.9572 229.432 84.8947C229.432 84.9456 229.431 84.9924 229.43 85.0345C229.419 85.0762 229.413 85.1202 229.407 85.1679C229.453 87.6528 229.86 90.0983 230.205 92.1691C230.276 92.5947 230.344 93.0045 230.406 93.3956L230.418 93.4683ZM220.149 152.731C214.959 149.576 211.53 122.3 211.548 111.982C211.551 109.681 211.39 106.643 211.211 103.255C210.646 92.5739 209.898 78.4177 213.512 72.9481C233.362 42.8906 251.917 50.9874 251.941 79.8838C251.963 112.007 250.669 113.461 233.757 114.188C235.664 139.365 260.436 139.207 265.613 111.856C268.075 101.144 263.229 83.9751 257.856 72.1603C290.289 65.7968 290.546 91.1097 288.616 121.436C288.334 125.882 288.348 129.545 288.359 132.574C288.4 143.96 288.409 146.376 272.576 147.65C269.132 147.927 263.879 149.045 257.956 150.305C244.269 153.216 226.997 156.889 220.149 152.731Z" fill="white"/>
</svg>
